<?xml version="1.0" encoding="UTF-8"?>
<svg width="19px" height="23px" viewBox="0 0 19 23" version="1.1" xmlns="http://www.w3.org/2000/svg" xmlns:xlink="http://www.w3.org/1999/xlink">
    <!-- Generator: Sketch 51.2 (57519) - http://www.bohemiancoding.com/sketch -->
    <title>Icons / Bag</title>
    <desc>Created with Sketch.</desc>
    <defs></defs>
    <g id="Icons-/-Bag" stroke="none" stroke-width="1" fill="none" fill-rule="evenodd">
        <path d="M17.083,9.846 C17.083,10.79 16.315,11.557 15.372,11.557 L13.779,11.557 L13.779,5.627 L12.279,5.627 L12.279,11.557 L6.412,11.557 L6.412,5.627 L4.912,5.627 L4.912,11.557 L3.211,11.557 C2.268,11.557 1.5,10.79 1.5,9.846 L1.5,7.67 L1.5,5.031 C1.5,4.49 1.939,4.051 2.479,4.051 L16.103,4.051 C16.644,4.051 17.083,4.49 17.083,5.031 L17.083,7.67 L17.083,9.846 Z M16.103,20.564 L2.478,20.564 C1.938,20.564 1.5,20.126 1.5,19.587 L1.5,19.057 L17.083,19.057 L17.083,19.584 C17.083,20.125 16.644,20.564 16.103,20.564 Z M6.412,15.826 L6.412,13.057 L12.279,13.057 L12.279,15.826 L13.779,15.826 L13.779,13.057 L15.372,13.057 C16.002,13.057 16.586,12.868 17.083,12.553 L17.083,17.557 L1.5,17.557 L1.5,12.553 C1.997,12.868 2.581,13.057 3.211,13.057 L4.912,13.057 L4.912,15.826 L6.412,15.826 Z M7.833,2.55 L10.577,2.55 L10.577,1.5 L7.833,1.5 L7.833,2.55 Z M16.103,2.551 L12.077,2.551 L12.077,0 L6.333,0 L6.333,2.551 L2.479,2.551 C1.112,2.551 0,3.663 0,5.031 L0,7.67 L0,9.846 L0,19.587 C0,20.953 1.111,22.064 2.478,22.064 L16.103,22.064 C17.471,22.064 18.583,20.952 18.583,19.584 L18.583,9.846 L18.583,7.67 L18.583,5.031 C18.583,3.663 17.471,2.551 16.103,2.551 Z" id="Fill-1" fill="#1D2B39"></path>
    </g>
</svg>